<mxfile host="app.diagrams.net" modified="2024-05-15T18:57:41.687Z" agent="Mozilla/5.0 (Windows NT 10.0; Win64; x64) AppleWebKit/537.36 (KHTML, like Gecko) Chrome/124.0.0.0 Safari/537.36" etag="wHE1SO-3xvnz828O_XRS" version="24.4.0" type="device">
  <diagram name="PÃ¡gina-1" id="UaWsLqwv9wHi15Pn0HxW">
    <mxGraphModel dx="1633" dy="898" grid="1" gridSize="10" guides="1" tooltips="1" connect="1" arrows="1" fold="1" page="1" pageScale="1" pageWidth="1169" pageHeight="1654" math="0" shadow="0">
      <root>
        <mxCell id="0" />
        <mxCell id="1" parent="0" />
        <mxCell id="s0JxeHWiGgHbualvhHLS-1" value="Hosts" style="shape=table;startSize=30;container=1;collapsible=0;childLayout=tableLayout;fixedRows=1;rowLines=0;fontStyle=0;strokeColor=default;fontSize=16;" parent="1" vertex="1">
          <mxGeometry x="70" y="80" width="180" height="170" as="geometry" />
        </mxCell>
        <mxCell id="s0JxeHWiGgHbualvhHLS-2" value="" style="shape=tableRow;horizontal=0;startSize=0;swimlaneHead=0;swimlaneBody=0;top=0;left=0;bottom=0;right=0;collapsible=0;dropTarget=0;fillColor=none;points=[[0,0.5],[1,0.5]];portConstraint=eastwest;strokeColor=inherit;fontSize=16;" parent="s0JxeHWiGgHbualvhHLS-1" vertex="1">
          <mxGeometry y="30" width="180" height="60" as="geometry" />
        </mxCell>
        <mxCell id="s0JxeHWiGgHbualvhHLS-3" value="PK" style="shape=partialRectangle;html=1;whiteSpace=wrap;connectable=0;fillColor=none;top=0;left=0;bottom=0;right=0;overflow=hidden;pointerEvents=1;strokeColor=inherit;fontSize=16;" parent="s0JxeHWiGgHbualvhHLS-2" vertex="1">
          <mxGeometry width="40" height="60" as="geometry">
            <mxRectangle width="40" height="60" as="alternateBounds" />
          </mxGeometry>
        </mxCell>
        <mxCell id="s0JxeHWiGgHbualvhHLS-4" value="Host_Id INT NOT NULL" style="shape=partialRectangle;html=1;whiteSpace=wrap;connectable=0;fillColor=none;top=0;left=0;bottom=0;right=0;align=left;spacingLeft=6;overflow=hidden;strokeColor=inherit;fontSize=16;" parent="s0JxeHWiGgHbualvhHLS-2" vertex="1">
          <mxGeometry x="40" width="140" height="60" as="geometry">
            <mxRectangle width="140" height="60" as="alternateBounds" />
          </mxGeometry>
        </mxCell>
        <mxCell id="s0JxeHWiGgHbualvhHLS-8" value="" style="shape=tableRow;horizontal=0;startSize=0;swimlaneHead=0;swimlaneBody=0;top=0;left=0;bottom=0;right=0;collapsible=0;dropTarget=0;fillColor=none;points=[[0,0.5],[1,0.5]];portConstraint=eastwest;strokeColor=inherit;fontSize=16;" parent="s0JxeHWiGgHbualvhHLS-1" vertex="1">
          <mxGeometry y="90" width="180" height="80" as="geometry" />
        </mxCell>
        <mxCell id="s0JxeHWiGgHbualvhHLS-9" value="" style="shape=partialRectangle;html=1;whiteSpace=wrap;connectable=0;fillColor=none;top=0;left=0;bottom=0;right=0;overflow=hidden;strokeColor=inherit;fontSize=16;" parent="s0JxeHWiGgHbualvhHLS-8" vertex="1">
          <mxGeometry width="40" height="80" as="geometry">
            <mxRectangle width="40" height="80" as="alternateBounds" />
          </mxGeometry>
        </mxCell>
        <mxCell id="s0JxeHWiGgHbualvhHLS-10" value="Rooms rent by the host INT&amp;nbsp;" style="shape=partialRectangle;html=1;whiteSpace=wrap;connectable=0;fillColor=none;top=0;left=0;bottom=0;right=0;align=left;spacingLeft=6;overflow=hidden;strokeColor=inherit;fontSize=16;" parent="s0JxeHWiGgHbualvhHLS-8" vertex="1">
          <mxGeometry x="40" width="140" height="80" as="geometry">
            <mxRectangle width="140" height="80" as="alternateBounds" />
          </mxGeometry>
        </mxCell>
        <mxCell id="s0JxeHWiGgHbualvhHLS-11" value="Location_Room" style="shape=table;startSize=30;container=1;collapsible=0;childLayout=tableLayout;fixedRows=1;rowLines=0;fontStyle=0;strokeColor=default;fontSize=16;" parent="1" vertex="1">
          <mxGeometry x="820" y="80" width="200" height="190" as="geometry" />
        </mxCell>
        <mxCell id="s0JxeHWiGgHbualvhHLS-12" value="" style="shape=tableRow;horizontal=0;startSize=0;swimlaneHead=0;swimlaneBody=0;top=0;left=0;bottom=0;right=0;collapsible=0;dropTarget=0;fillColor=none;points=[[0,0.5],[1,0.5]];portConstraint=eastwest;strokeColor=inherit;fontSize=16;" parent="s0JxeHWiGgHbualvhHLS-11" vertex="1">
          <mxGeometry y="30" width="200" height="50" as="geometry" />
        </mxCell>
        <mxCell id="s0JxeHWiGgHbualvhHLS-13" value="PK" style="shape=partialRectangle;html=1;whiteSpace=wrap;connectable=0;fillColor=none;top=0;left=0;bottom=0;right=0;overflow=hidden;pointerEvents=1;strokeColor=inherit;fontSize=16;" parent="s0JxeHWiGgHbualvhHLS-12" vertex="1">
          <mxGeometry width="40" height="50" as="geometry">
            <mxRectangle width="40" height="50" as="alternateBounds" />
          </mxGeometry>
        </mxCell>
        <mxCell id="s0JxeHWiGgHbualvhHLS-14" value="Location_Room_Id INT NOT NULL" style="shape=partialRectangle;html=1;whiteSpace=wrap;connectable=0;fillColor=none;top=0;left=0;bottom=0;right=0;align=left;spacingLeft=6;overflow=hidden;strokeColor=inherit;fontSize=16;" parent="s0JxeHWiGgHbualvhHLS-12" vertex="1">
          <mxGeometry x="40" width="160" height="50" as="geometry">
            <mxRectangle width="160" height="50" as="alternateBounds" />
          </mxGeometry>
        </mxCell>
        <mxCell id="s0JxeHWiGgHbualvhHLS-15" value="" style="shape=tableRow;horizontal=0;startSize=0;swimlaneHead=0;swimlaneBody=0;top=0;left=0;bottom=0;right=0;collapsible=0;dropTarget=0;fillColor=none;points=[[0,0.5],[1,0.5]];portConstraint=eastwest;strokeColor=inherit;fontSize=16;" parent="s0JxeHWiGgHbualvhHLS-11" vertex="1">
          <mxGeometry y="80" width="200" height="60" as="geometry" />
        </mxCell>
        <mxCell id="s0JxeHWiGgHbualvhHLS-16" value="" style="shape=partialRectangle;html=1;whiteSpace=wrap;connectable=0;fillColor=none;top=0;left=0;bottom=0;right=0;overflow=hidden;strokeColor=inherit;fontSize=16;" parent="s0JxeHWiGgHbualvhHLS-15" vertex="1">
          <mxGeometry width="40" height="60" as="geometry">
            <mxRectangle width="40" height="60" as="alternateBounds" />
          </mxGeometry>
        </mxCell>
        <mxCell id="s0JxeHWiGgHbualvhHLS-17" value="Neighbourhood varchar (100)" style="shape=partialRectangle;html=1;whiteSpace=wrap;connectable=0;fillColor=none;top=0;left=0;bottom=0;right=0;align=left;spacingLeft=6;overflow=hidden;strokeColor=inherit;fontSize=16;" parent="s0JxeHWiGgHbualvhHLS-15" vertex="1">
          <mxGeometry x="40" width="160" height="60" as="geometry">
            <mxRectangle width="160" height="60" as="alternateBounds" />
          </mxGeometry>
        </mxCell>
        <mxCell id="SpVYuSMOWZ6ZJoNV5RPl-62" value="" style="shape=tableRow;horizontal=0;startSize=0;swimlaneHead=0;swimlaneBody=0;top=0;left=0;bottom=0;right=0;collapsible=0;dropTarget=0;fillColor=none;points=[[0,0.5],[1,0.5]];portConstraint=eastwest;strokeColor=inherit;fontSize=16;" vertex="1" parent="s0JxeHWiGgHbualvhHLS-11">
          <mxGeometry y="140" width="200" height="50" as="geometry" />
        </mxCell>
        <mxCell id="SpVYuSMOWZ6ZJoNV5RPl-63" value="FK" style="shape=partialRectangle;html=1;whiteSpace=wrap;connectable=0;fillColor=none;top=0;left=0;bottom=0;right=0;overflow=hidden;strokeColor=inherit;fontSize=16;" vertex="1" parent="SpVYuSMOWZ6ZJoNV5RPl-62">
          <mxGeometry width="40" height="50" as="geometry">
            <mxRectangle width="40" height="50" as="alternateBounds" />
          </mxGeometry>
        </mxCell>
        <mxCell id="SpVYuSMOWZ6ZJoNV5RPl-64" value="Cordinates_Id INT NOT NULL" style="shape=partialRectangle;html=1;whiteSpace=wrap;connectable=0;fillColor=none;top=0;left=0;bottom=0;right=0;align=left;spacingLeft=6;overflow=hidden;strokeColor=inherit;fontSize=16;" vertex="1" parent="SpVYuSMOWZ6ZJoNV5RPl-62">
          <mxGeometry x="40" width="160" height="50" as="geometry">
            <mxRectangle width="160" height="50" as="alternateBounds" />
          </mxGeometry>
        </mxCell>
        <mxCell id="s0JxeHWiGgHbualvhHLS-21" value="Room" style="shape=table;startSize=30;container=1;collapsible=0;childLayout=tableLayout;fixedRows=1;rowLines=0;fontStyle=0;strokeColor=default;fontSize=16;" parent="1" vertex="1">
          <mxGeometry x="360" y="40" width="290" height="430" as="geometry" />
        </mxCell>
        <mxCell id="s0JxeHWiGgHbualvhHLS-22" value="" style="shape=tableRow;horizontal=0;startSize=0;swimlaneHead=0;swimlaneBody=0;top=0;left=0;bottom=0;right=0;collapsible=0;dropTarget=0;fillColor=none;points=[[0,0.5],[1,0.5]];portConstraint=eastwest;strokeColor=inherit;fontSize=16;" parent="s0JxeHWiGgHbualvhHLS-21" vertex="1">
          <mxGeometry y="30" width="290" height="50" as="geometry" />
        </mxCell>
        <mxCell id="s0JxeHWiGgHbualvhHLS-23" value="PK" style="shape=partialRectangle;html=1;whiteSpace=wrap;connectable=0;fillColor=none;top=0;left=0;bottom=0;right=0;overflow=hidden;pointerEvents=1;strokeColor=inherit;fontSize=16;" parent="s0JxeHWiGgHbualvhHLS-22" vertex="1">
          <mxGeometry width="40" height="50" as="geometry">
            <mxRectangle width="40" height="50" as="alternateBounds" />
          </mxGeometry>
        </mxCell>
        <mxCell id="s0JxeHWiGgHbualvhHLS-24" value="Room_Id INT NOT NULL" style="shape=partialRectangle;html=1;whiteSpace=wrap;connectable=0;fillColor=none;top=0;left=0;bottom=0;right=0;align=left;spacingLeft=6;overflow=hidden;strokeColor=inherit;fontSize=16;" parent="s0JxeHWiGgHbualvhHLS-22" vertex="1">
          <mxGeometry x="40" width="250" height="50" as="geometry">
            <mxRectangle width="250" height="50" as="alternateBounds" />
          </mxGeometry>
        </mxCell>
        <mxCell id="s0JxeHWiGgHbualvhHLS-28" value="" style="shape=tableRow;horizontal=0;startSize=0;swimlaneHead=0;swimlaneBody=0;top=0;left=0;bottom=0;right=0;collapsible=0;dropTarget=0;fillColor=none;points=[[0,0.5],[1,0.5]];portConstraint=eastwest;strokeColor=inherit;fontSize=16;" parent="s0JxeHWiGgHbualvhHLS-21" vertex="1">
          <mxGeometry y="80" width="290" height="70" as="geometry" />
        </mxCell>
        <mxCell id="s0JxeHWiGgHbualvhHLS-29" value="FK" style="shape=partialRectangle;html=1;whiteSpace=wrap;connectable=0;fillColor=none;top=0;left=0;bottom=0;right=0;overflow=hidden;strokeColor=inherit;fontSize=16;" parent="s0JxeHWiGgHbualvhHLS-28" vertex="1">
          <mxGeometry width="40" height="70" as="geometry">
            <mxRectangle width="40" height="70" as="alternateBounds" />
          </mxGeometry>
        </mxCell>
        <mxCell id="s0JxeHWiGgHbualvhHLS-30" value="Room_Type_Id INT NOT NULL" style="shape=partialRectangle;html=1;whiteSpace=wrap;connectable=0;fillColor=none;top=0;left=0;bottom=0;right=0;align=left;spacingLeft=6;overflow=hidden;strokeColor=inherit;fontSize=16;" parent="s0JxeHWiGgHbualvhHLS-28" vertex="1">
          <mxGeometry x="40" width="250" height="70" as="geometry">
            <mxRectangle width="250" height="70" as="alternateBounds" />
          </mxGeometry>
        </mxCell>
        <mxCell id="s0JxeHWiGgHbualvhHLS-44" value="" style="shape=tableRow;horizontal=0;startSize=0;swimlaneHead=0;swimlaneBody=0;top=0;left=0;bottom=0;right=0;collapsible=0;dropTarget=0;fillColor=none;points=[[0,0.5],[1,0.5]];portConstraint=eastwest;strokeColor=inherit;fontSize=16;" parent="s0JxeHWiGgHbualvhHLS-21" vertex="1">
          <mxGeometry y="150" width="290" height="70" as="geometry" />
        </mxCell>
        <mxCell id="s0JxeHWiGgHbualvhHLS-45" value="FK" style="shape=partialRectangle;html=1;whiteSpace=wrap;connectable=0;fillColor=none;top=0;left=0;bottom=0;right=0;overflow=hidden;strokeColor=inherit;fontSize=16;" parent="s0JxeHWiGgHbualvhHLS-44" vertex="1">
          <mxGeometry width="40" height="70" as="geometry">
            <mxRectangle width="40" height="70" as="alternateBounds" />
          </mxGeometry>
        </mxCell>
        <mxCell id="s0JxeHWiGgHbualvhHLS-46" value="Host_Id INT NOT NULL" style="shape=partialRectangle;html=1;whiteSpace=wrap;connectable=0;fillColor=none;top=0;left=0;bottom=0;right=0;align=left;spacingLeft=6;overflow=hidden;strokeColor=inherit;fontSize=16;" parent="s0JxeHWiGgHbualvhHLS-44" vertex="1">
          <mxGeometry x="40" width="250" height="70" as="geometry">
            <mxRectangle width="250" height="70" as="alternateBounds" />
          </mxGeometry>
        </mxCell>
        <mxCell id="s0JxeHWiGgHbualvhHLS-47" value="" style="shape=tableRow;horizontal=0;startSize=0;swimlaneHead=0;swimlaneBody=0;top=0;left=0;bottom=0;right=0;collapsible=0;dropTarget=0;fillColor=none;points=[[0,0.5],[1,0.5]];portConstraint=eastwest;strokeColor=inherit;fontSize=16;" parent="s0JxeHWiGgHbualvhHLS-21" vertex="1">
          <mxGeometry y="220" width="290" height="70" as="geometry" />
        </mxCell>
        <mxCell id="s0JxeHWiGgHbualvhHLS-48" value="" style="shape=partialRectangle;html=1;whiteSpace=wrap;connectable=0;fillColor=none;top=0;left=0;bottom=0;right=0;overflow=hidden;strokeColor=inherit;fontSize=16;" parent="s0JxeHWiGgHbualvhHLS-47" vertex="1">
          <mxGeometry width="40" height="70" as="geometry">
            <mxRectangle width="40" height="70" as="alternateBounds" />
          </mxGeometry>
        </mxCell>
        <mxCell id="s0JxeHWiGgHbualvhHLS-49" value="Price NUMBER" style="shape=partialRectangle;html=1;whiteSpace=wrap;connectable=0;fillColor=none;top=0;left=0;bottom=0;right=0;align=left;spacingLeft=6;overflow=hidden;strokeColor=inherit;fontSize=16;" parent="s0JxeHWiGgHbualvhHLS-47" vertex="1">
          <mxGeometry x="40" width="250" height="70" as="geometry">
            <mxRectangle width="250" height="70" as="alternateBounds" />
          </mxGeometry>
        </mxCell>
        <mxCell id="s0JxeHWiGgHbualvhHLS-59" value="" style="shape=tableRow;horizontal=0;startSize=0;swimlaneHead=0;swimlaneBody=0;top=0;left=0;bottom=0;right=0;collapsible=0;dropTarget=0;fillColor=none;points=[[0,0.5],[1,0.5]];portConstraint=eastwest;strokeColor=inherit;fontSize=16;" parent="s0JxeHWiGgHbualvhHLS-21" vertex="1">
          <mxGeometry y="290" width="290" height="70" as="geometry" />
        </mxCell>
        <mxCell id="s0JxeHWiGgHbualvhHLS-60" value="FK" style="shape=partialRectangle;html=1;whiteSpace=wrap;connectable=0;fillColor=none;top=0;left=0;bottom=0;right=0;overflow=hidden;strokeColor=inherit;fontSize=16;" parent="s0JxeHWiGgHbualvhHLS-59" vertex="1">
          <mxGeometry width="40" height="70" as="geometry">
            <mxRectangle width="40" height="70" as="alternateBounds" />
          </mxGeometry>
        </mxCell>
        <mxCell id="s0JxeHWiGgHbualvhHLS-61" value="Availibility_Id INT NOT NULL" style="shape=partialRectangle;html=1;whiteSpace=wrap;connectable=0;fillColor=none;top=0;left=0;bottom=0;right=0;align=left;spacingLeft=6;overflow=hidden;strokeColor=inherit;fontSize=16;" parent="s0JxeHWiGgHbualvhHLS-59" vertex="1">
          <mxGeometry x="40" width="250" height="70" as="geometry">
            <mxRectangle width="250" height="70" as="alternateBounds" />
          </mxGeometry>
        </mxCell>
        <mxCell id="s0JxeHWiGgHbualvhHLS-75" value="" style="shape=tableRow;horizontal=0;startSize=0;swimlaneHead=0;swimlaneBody=0;top=0;left=0;bottom=0;right=0;collapsible=0;dropTarget=0;fillColor=none;points=[[0,0.5],[1,0.5]];portConstraint=eastwest;strokeColor=inherit;fontSize=16;" parent="s0JxeHWiGgHbualvhHLS-21" vertex="1">
          <mxGeometry y="360" width="290" height="70" as="geometry" />
        </mxCell>
        <mxCell id="s0JxeHWiGgHbualvhHLS-76" value="FK" style="shape=partialRectangle;html=1;whiteSpace=wrap;connectable=0;fillColor=none;top=0;left=0;bottom=0;right=0;overflow=hidden;strokeColor=inherit;fontSize=16;" parent="s0JxeHWiGgHbualvhHLS-75" vertex="1">
          <mxGeometry width="40" height="70" as="geometry">
            <mxRectangle width="40" height="70" as="alternateBounds" />
          </mxGeometry>
        </mxCell>
        <mxCell id="s0JxeHWiGgHbualvhHLS-77" value="Location_Id INT NOT NULL" style="shape=partialRectangle;html=1;whiteSpace=wrap;connectable=0;fillColor=none;top=0;left=0;bottom=0;right=0;align=left;spacingLeft=6;overflow=hidden;strokeColor=inherit;fontSize=16;" parent="s0JxeHWiGgHbualvhHLS-75" vertex="1">
          <mxGeometry x="40" width="250" height="70" as="geometry">
            <mxRectangle width="250" height="70" as="alternateBounds" />
          </mxGeometry>
        </mxCell>
        <mxCell id="s0JxeHWiGgHbualvhHLS-32" value="" style="line;strokeWidth=2;html=1;" parent="1" vertex="1">
          <mxGeometry x="70" y="170" width="180" height="10" as="geometry" />
        </mxCell>
        <mxCell id="s0JxeHWiGgHbualvhHLS-62" value="" style="line;strokeWidth=2;html=1;" parent="1" vertex="1">
          <mxGeometry x="360" y="120" width="290" height="10" as="geometry" />
        </mxCell>
        <mxCell id="s0JxeHWiGgHbualvhHLS-66" value="" style="line;strokeWidth=2;html=1;" parent="1" vertex="1">
          <mxGeometry x="820" y="160" width="200" height="10" as="geometry" />
        </mxCell>
        <mxCell id="SpVYuSMOWZ6ZJoNV5RPl-1" value="Coordinates" style="shape=table;startSize=30;container=1;collapsible=0;childLayout=tableLayout;fixedRows=1;rowLines=0;fontStyle=0;strokeColor=default;fontSize=16;" vertex="1" parent="1">
          <mxGeometry x="760" y="420" width="210" height="230" as="geometry" />
        </mxCell>
        <mxCell id="SpVYuSMOWZ6ZJoNV5RPl-2" value="" style="shape=tableRow;horizontal=0;startSize=0;swimlaneHead=0;swimlaneBody=0;top=0;left=0;bottom=0;right=0;collapsible=0;dropTarget=0;fillColor=none;points=[[0,0.5],[1,0.5]];portConstraint=eastwest;strokeColor=inherit;fontSize=16;" vertex="1" parent="SpVYuSMOWZ6ZJoNV5RPl-1">
          <mxGeometry y="30" width="210" height="50" as="geometry" />
        </mxCell>
        <mxCell id="SpVYuSMOWZ6ZJoNV5RPl-3" value="PK" style="shape=partialRectangle;html=1;whiteSpace=wrap;connectable=0;fillColor=none;top=0;left=0;bottom=0;right=0;overflow=hidden;pointerEvents=1;strokeColor=inherit;fontSize=16;" vertex="1" parent="SpVYuSMOWZ6ZJoNV5RPl-2">
          <mxGeometry width="40" height="50" as="geometry">
            <mxRectangle width="40" height="50" as="alternateBounds" />
          </mxGeometry>
        </mxCell>
        <mxCell id="SpVYuSMOWZ6ZJoNV5RPl-4" value="Cordinates_Id INT NOT NULL" style="shape=partialRectangle;html=1;whiteSpace=wrap;connectable=0;fillColor=none;top=0;left=0;bottom=0;right=0;align=left;spacingLeft=6;overflow=hidden;strokeColor=inherit;fontSize=16;" vertex="1" parent="SpVYuSMOWZ6ZJoNV5RPl-2">
          <mxGeometry x="40" width="170" height="50" as="geometry">
            <mxRectangle width="170" height="50" as="alternateBounds" />
          </mxGeometry>
        </mxCell>
        <mxCell id="SpVYuSMOWZ6ZJoNV5RPl-5" value="" style="shape=tableRow;horizontal=0;startSize=0;swimlaneHead=0;swimlaneBody=0;top=0;left=0;bottom=0;right=0;collapsible=0;dropTarget=0;fillColor=none;points=[[0,0.5],[1,0.5]];portConstraint=eastwest;strokeColor=inherit;fontSize=16;" vertex="1" parent="SpVYuSMOWZ6ZJoNV5RPl-1">
          <mxGeometry y="80" width="210" height="70" as="geometry" />
        </mxCell>
        <mxCell id="SpVYuSMOWZ6ZJoNV5RPl-6" value="" style="shape=partialRectangle;html=1;whiteSpace=wrap;connectable=0;fillColor=none;top=0;left=0;bottom=0;right=0;overflow=hidden;strokeColor=inherit;fontSize=16;" vertex="1" parent="SpVYuSMOWZ6ZJoNV5RPl-5">
          <mxGeometry width="40" height="70" as="geometry">
            <mxRectangle width="40" height="70" as="alternateBounds" />
          </mxGeometry>
        </mxCell>
        <mxCell id="SpVYuSMOWZ6ZJoNV5RPl-7" value="Coordinates varchar (150)&amp;nbsp;" style="shape=partialRectangle;html=1;whiteSpace=wrap;connectable=0;fillColor=none;top=0;left=0;bottom=0;right=0;align=left;spacingLeft=6;overflow=hidden;strokeColor=inherit;fontSize=16;" vertex="1" parent="SpVYuSMOWZ6ZJoNV5RPl-5">
          <mxGeometry x="40" width="170" height="70" as="geometry">
            <mxRectangle width="170" height="70" as="alternateBounds" />
          </mxGeometry>
        </mxCell>
        <mxCell id="SpVYuSMOWZ6ZJoNV5RPl-8" value="" style="shape=tableRow;horizontal=0;startSize=0;swimlaneHead=0;swimlaneBody=0;top=0;left=0;bottom=0;right=0;collapsible=0;dropTarget=0;fillColor=none;points=[[0,0.5],[1,0.5]];portConstraint=eastwest;strokeColor=inherit;fontSize=16;" vertex="1" parent="SpVYuSMOWZ6ZJoNV5RPl-1">
          <mxGeometry y="150" width="210" height="40" as="geometry" />
        </mxCell>
        <mxCell id="SpVYuSMOWZ6ZJoNV5RPl-9" value="" style="shape=partialRectangle;html=1;whiteSpace=wrap;connectable=0;fillColor=none;top=0;left=0;bottom=0;right=0;overflow=hidden;strokeColor=inherit;fontSize=16;" vertex="1" parent="SpVYuSMOWZ6ZJoNV5RPl-8">
          <mxGeometry width="40" height="40" as="geometry">
            <mxRectangle width="40" height="40" as="alternateBounds" />
          </mxGeometry>
        </mxCell>
        <mxCell id="SpVYuSMOWZ6ZJoNV5RPl-10" value="Latitud&amp;nbsp; NUMBER&amp;nbsp;" style="shape=partialRectangle;html=1;whiteSpace=wrap;connectable=0;fillColor=none;top=0;left=0;bottom=0;right=0;align=left;spacingLeft=6;overflow=hidden;strokeColor=inherit;fontSize=16;" vertex="1" parent="SpVYuSMOWZ6ZJoNV5RPl-8">
          <mxGeometry x="40" width="170" height="40" as="geometry">
            <mxRectangle width="170" height="40" as="alternateBounds" />
          </mxGeometry>
        </mxCell>
        <mxCell id="SpVYuSMOWZ6ZJoNV5RPl-11" value="" style="shape=tableRow;horizontal=0;startSize=0;swimlaneHead=0;swimlaneBody=0;top=0;left=0;bottom=0;right=0;collapsible=0;dropTarget=0;fillColor=none;points=[[0,0.5],[1,0.5]];portConstraint=eastwest;strokeColor=inherit;fontSize=16;" vertex="1" parent="SpVYuSMOWZ6ZJoNV5RPl-1">
          <mxGeometry y="190" width="210" height="40" as="geometry" />
        </mxCell>
        <mxCell id="SpVYuSMOWZ6ZJoNV5RPl-12" value="" style="shape=partialRectangle;html=1;whiteSpace=wrap;connectable=0;fillColor=none;top=0;left=0;bottom=0;right=0;overflow=hidden;strokeColor=inherit;fontSize=16;" vertex="1" parent="SpVYuSMOWZ6ZJoNV5RPl-11">
          <mxGeometry width="40" height="40" as="geometry">
            <mxRectangle width="40" height="40" as="alternateBounds" />
          </mxGeometry>
        </mxCell>
        <mxCell id="SpVYuSMOWZ6ZJoNV5RPl-13" value="Longitud NUMBER" style="shape=partialRectangle;html=1;whiteSpace=wrap;connectable=0;fillColor=none;top=0;left=0;bottom=0;right=0;align=left;spacingLeft=6;overflow=hidden;strokeColor=inherit;fontSize=16;" vertex="1" parent="SpVYuSMOWZ6ZJoNV5RPl-11">
          <mxGeometry x="40" width="170" height="40" as="geometry">
            <mxRectangle width="170" height="40" as="alternateBounds" />
          </mxGeometry>
        </mxCell>
        <mxCell id="SpVYuSMOWZ6ZJoNV5RPl-14" value="" style="line;strokeWidth=2;html=1;" vertex="1" parent="1">
          <mxGeometry x="760" y="500" width="210" height="10" as="geometry" />
        </mxCell>
        <mxCell id="SpVYuSMOWZ6ZJoNV5RPl-15" value="Reviws" style="shape=table;startSize=30;container=1;collapsible=0;childLayout=tableLayout;fixedRows=1;rowLines=0;fontStyle=0;strokeColor=default;fontSize=16;" vertex="1" parent="1">
          <mxGeometry x="360" y="580" width="220" height="230" as="geometry" />
        </mxCell>
        <mxCell id="SpVYuSMOWZ6ZJoNV5RPl-16" value="" style="shape=tableRow;horizontal=0;startSize=0;swimlaneHead=0;swimlaneBody=0;top=0;left=0;bottom=0;right=0;collapsible=0;dropTarget=0;fillColor=none;points=[[0,0.5],[1,0.5]];portConstraint=eastwest;strokeColor=inherit;fontSize=16;" vertex="1" parent="SpVYuSMOWZ6ZJoNV5RPl-15">
          <mxGeometry y="30" width="220" height="50" as="geometry" />
        </mxCell>
        <mxCell id="SpVYuSMOWZ6ZJoNV5RPl-17" value="PK" style="shape=partialRectangle;html=1;whiteSpace=wrap;connectable=0;fillColor=none;top=0;left=0;bottom=0;right=0;overflow=hidden;pointerEvents=1;strokeColor=inherit;fontSize=16;" vertex="1" parent="SpVYuSMOWZ6ZJoNV5RPl-16">
          <mxGeometry width="40" height="50" as="geometry">
            <mxRectangle width="40" height="50" as="alternateBounds" />
          </mxGeometry>
        </mxCell>
        <mxCell id="SpVYuSMOWZ6ZJoNV5RPl-18" value="Reviews_Id INT NOT NULL" style="shape=partialRectangle;html=1;whiteSpace=wrap;connectable=0;fillColor=none;top=0;left=0;bottom=0;right=0;align=left;spacingLeft=6;overflow=hidden;strokeColor=inherit;fontSize=16;" vertex="1" parent="SpVYuSMOWZ6ZJoNV5RPl-16">
          <mxGeometry x="40" width="180" height="50" as="geometry">
            <mxRectangle width="180" height="50" as="alternateBounds" />
          </mxGeometry>
        </mxCell>
        <mxCell id="SpVYuSMOWZ6ZJoNV5RPl-19" value="" style="shape=tableRow;horizontal=0;startSize=0;swimlaneHead=0;swimlaneBody=0;top=0;left=0;bottom=0;right=0;collapsible=0;dropTarget=0;fillColor=none;points=[[0,0.5],[1,0.5]];portConstraint=eastwest;strokeColor=inherit;fontSize=16;" vertex="1" parent="SpVYuSMOWZ6ZJoNV5RPl-15">
          <mxGeometry y="80" width="220" height="30" as="geometry" />
        </mxCell>
        <mxCell id="SpVYuSMOWZ6ZJoNV5RPl-20" value="FK" style="shape=partialRectangle;html=1;whiteSpace=wrap;connectable=0;fillColor=none;top=0;left=0;bottom=0;right=0;overflow=hidden;strokeColor=inherit;fontSize=16;" vertex="1" parent="SpVYuSMOWZ6ZJoNV5RPl-19">
          <mxGeometry width="40" height="30" as="geometry">
            <mxRectangle width="40" height="30" as="alternateBounds" />
          </mxGeometry>
        </mxCell>
        <mxCell id="SpVYuSMOWZ6ZJoNV5RPl-21" value="Room_Id&amp;nbsp;" style="shape=partialRectangle;html=1;whiteSpace=wrap;connectable=0;fillColor=none;top=0;left=0;bottom=0;right=0;align=left;spacingLeft=6;overflow=hidden;strokeColor=inherit;fontSize=16;" vertex="1" parent="SpVYuSMOWZ6ZJoNV5RPl-19">
          <mxGeometry x="40" width="180" height="30" as="geometry">
            <mxRectangle width="180" height="30" as="alternateBounds" />
          </mxGeometry>
        </mxCell>
        <mxCell id="SpVYuSMOWZ6ZJoNV5RPl-25" value="" style="shape=tableRow;horizontal=0;startSize=0;swimlaneHead=0;swimlaneBody=0;top=0;left=0;bottom=0;right=0;collapsible=0;dropTarget=0;fillColor=none;points=[[0,0.5],[1,0.5]];portConstraint=eastwest;strokeColor=inherit;fontSize=16;" vertex="1" parent="SpVYuSMOWZ6ZJoNV5RPl-15">
          <mxGeometry y="110" width="220" height="60" as="geometry" />
        </mxCell>
        <mxCell id="SpVYuSMOWZ6ZJoNV5RPl-26" value="" style="shape=partialRectangle;html=1;whiteSpace=wrap;connectable=0;fillColor=none;top=0;left=0;bottom=0;right=0;overflow=hidden;strokeColor=inherit;fontSize=16;" vertex="1" parent="SpVYuSMOWZ6ZJoNV5RPl-25">
          <mxGeometry width="40" height="60" as="geometry">
            <mxRectangle width="40" height="60" as="alternateBounds" />
          </mxGeometry>
        </mxCell>
        <mxCell id="SpVYuSMOWZ6ZJoNV5RPl-27" value="Number_of_Reviews INT" style="shape=partialRectangle;html=1;whiteSpace=wrap;connectable=0;fillColor=none;top=0;left=0;bottom=0;right=0;align=left;spacingLeft=6;overflow=hidden;strokeColor=inherit;fontSize=16;" vertex="1" parent="SpVYuSMOWZ6ZJoNV5RPl-25">
          <mxGeometry x="40" width="180" height="60" as="geometry">
            <mxRectangle width="180" height="60" as="alternateBounds" />
          </mxGeometry>
        </mxCell>
        <mxCell id="SpVYuSMOWZ6ZJoNV5RPl-28" value="" style="shape=tableRow;horizontal=0;startSize=0;swimlaneHead=0;swimlaneBody=0;top=0;left=0;bottom=0;right=0;collapsible=0;dropTarget=0;fillColor=none;points=[[0,0.5],[1,0.5]];portConstraint=eastwest;strokeColor=inherit;fontSize=16;" vertex="1" parent="SpVYuSMOWZ6ZJoNV5RPl-15">
          <mxGeometry y="170" width="220" height="60" as="geometry" />
        </mxCell>
        <mxCell id="SpVYuSMOWZ6ZJoNV5RPl-29" value="" style="shape=partialRectangle;html=1;whiteSpace=wrap;connectable=0;fillColor=none;top=0;left=0;bottom=0;right=0;overflow=hidden;strokeColor=inherit;fontSize=16;" vertex="1" parent="SpVYuSMOWZ6ZJoNV5RPl-28">
          <mxGeometry width="40" height="60" as="geometry">
            <mxRectangle width="40" height="60" as="alternateBounds" />
          </mxGeometry>
        </mxCell>
        <mxCell id="SpVYuSMOWZ6ZJoNV5RPl-30" value="Reviews_per_Month NUMBER" style="shape=partialRectangle;html=1;whiteSpace=wrap;connectable=0;fillColor=none;top=0;left=0;bottom=0;right=0;align=left;spacingLeft=6;overflow=hidden;strokeColor=inherit;fontSize=16;" vertex="1" parent="SpVYuSMOWZ6ZJoNV5RPl-28">
          <mxGeometry x="40" width="180" height="60" as="geometry">
            <mxRectangle width="180" height="60" as="alternateBounds" />
          </mxGeometry>
        </mxCell>
        <mxCell id="SpVYuSMOWZ6ZJoNV5RPl-31" value="Room Type" style="shape=table;startSize=30;container=1;collapsible=0;childLayout=tableLayout;fixedRows=1;rowLines=0;fontStyle=0;strokeColor=default;fontSize=16;" vertex="1" parent="1">
          <mxGeometry x="60" y="370" width="180" height="150" as="geometry" />
        </mxCell>
        <mxCell id="SpVYuSMOWZ6ZJoNV5RPl-32" value="" style="shape=tableRow;horizontal=0;startSize=0;swimlaneHead=0;swimlaneBody=0;top=0;left=0;bottom=0;right=0;collapsible=0;dropTarget=0;fillColor=none;points=[[0,0.5],[1,0.5]];portConstraint=eastwest;strokeColor=inherit;fontSize=16;" vertex="1" parent="SpVYuSMOWZ6ZJoNV5RPl-31">
          <mxGeometry y="30" width="180" height="60" as="geometry" />
        </mxCell>
        <mxCell id="SpVYuSMOWZ6ZJoNV5RPl-33" value="PK" style="shape=partialRectangle;html=1;whiteSpace=wrap;connectable=0;fillColor=none;top=0;left=0;bottom=0;right=0;overflow=hidden;pointerEvents=1;strokeColor=inherit;fontSize=16;" vertex="1" parent="SpVYuSMOWZ6ZJoNV5RPl-32">
          <mxGeometry width="40" height="60" as="geometry">
            <mxRectangle width="40" height="60" as="alternateBounds" />
          </mxGeometry>
        </mxCell>
        <mxCell id="SpVYuSMOWZ6ZJoNV5RPl-34" value="Room_Type_Id INT NOT NULL" style="shape=partialRectangle;html=1;whiteSpace=wrap;connectable=0;fillColor=none;top=0;left=0;bottom=0;right=0;align=left;spacingLeft=6;overflow=hidden;strokeColor=inherit;fontSize=16;" vertex="1" parent="SpVYuSMOWZ6ZJoNV5RPl-32">
          <mxGeometry x="40" width="140" height="60" as="geometry">
            <mxRectangle width="140" height="60" as="alternateBounds" />
          </mxGeometry>
        </mxCell>
        <mxCell id="SpVYuSMOWZ6ZJoNV5RPl-35" value="" style="shape=tableRow;horizontal=0;startSize=0;swimlaneHead=0;swimlaneBody=0;top=0;left=0;bottom=0;right=0;collapsible=0;dropTarget=0;fillColor=none;points=[[0,0.5],[1,0.5]];portConstraint=eastwest;strokeColor=inherit;fontSize=16;" vertex="1" parent="SpVYuSMOWZ6ZJoNV5RPl-31">
          <mxGeometry y="90" width="180" height="60" as="geometry" />
        </mxCell>
        <mxCell id="SpVYuSMOWZ6ZJoNV5RPl-36" value="" style="shape=partialRectangle;html=1;whiteSpace=wrap;connectable=0;fillColor=none;top=0;left=0;bottom=0;right=0;overflow=hidden;strokeColor=inherit;fontSize=16;" vertex="1" parent="SpVYuSMOWZ6ZJoNV5RPl-35">
          <mxGeometry width="40" height="60" as="geometry">
            <mxRectangle width="40" height="60" as="alternateBounds" />
          </mxGeometry>
        </mxCell>
        <mxCell id="SpVYuSMOWZ6ZJoNV5RPl-37" value="Room_Type varchar (60)&amp;nbsp;" style="shape=partialRectangle;html=1;whiteSpace=wrap;connectable=0;fillColor=none;top=0;left=0;bottom=0;right=0;align=left;spacingLeft=6;overflow=hidden;strokeColor=inherit;fontSize=16;" vertex="1" parent="SpVYuSMOWZ6ZJoNV5RPl-35">
          <mxGeometry x="40" width="140" height="60" as="geometry">
            <mxRectangle width="140" height="60" as="alternateBounds" />
          </mxGeometry>
        </mxCell>
        <mxCell id="SpVYuSMOWZ6ZJoNV5RPl-41" value="Availability" style="shape=table;startSize=30;container=1;collapsible=0;childLayout=tableLayout;fixedRows=1;rowLines=0;fontStyle=0;strokeColor=default;fontSize=16;" vertex="1" parent="1">
          <mxGeometry x="750" y="687" width="300" height="183" as="geometry" />
        </mxCell>
        <mxCell id="SpVYuSMOWZ6ZJoNV5RPl-42" value="" style="shape=tableRow;horizontal=0;startSize=0;swimlaneHead=0;swimlaneBody=0;top=0;left=0;bottom=0;right=0;collapsible=0;dropTarget=0;fillColor=none;points=[[0,0.5],[1,0.5]];portConstraint=eastwest;strokeColor=inherit;fontSize=16;" vertex="1" parent="SpVYuSMOWZ6ZJoNV5RPl-41">
          <mxGeometry y="30" width="300" height="63" as="geometry" />
        </mxCell>
        <mxCell id="SpVYuSMOWZ6ZJoNV5RPl-43" value="PK" style="shape=partialRectangle;html=1;whiteSpace=wrap;connectable=0;fillColor=none;top=0;left=0;bottom=0;right=0;overflow=hidden;pointerEvents=1;strokeColor=inherit;fontSize=16;" vertex="1" parent="SpVYuSMOWZ6ZJoNV5RPl-42">
          <mxGeometry width="40" height="63" as="geometry">
            <mxRectangle width="40" height="63" as="alternateBounds" />
          </mxGeometry>
        </mxCell>
        <mxCell id="SpVYuSMOWZ6ZJoNV5RPl-44" value="&lt;span style=&quot;text-align: center; text-wrap: nowrap;&quot;&gt;Availability_Id INT NOT NULL&lt;/span&gt;" style="shape=partialRectangle;html=1;whiteSpace=wrap;connectable=0;fillColor=none;top=0;left=0;bottom=0;right=0;align=left;spacingLeft=6;overflow=hidden;strokeColor=inherit;fontSize=16;" vertex="1" parent="SpVYuSMOWZ6ZJoNV5RPl-42">
          <mxGeometry x="40" width="260" height="63" as="geometry">
            <mxRectangle width="260" height="63" as="alternateBounds" />
          </mxGeometry>
        </mxCell>
        <mxCell id="SpVYuSMOWZ6ZJoNV5RPl-45" value="" style="shape=tableRow;horizontal=0;startSize=0;swimlaneHead=0;swimlaneBody=0;top=0;left=0;bottom=0;right=0;collapsible=0;dropTarget=0;fillColor=none;points=[[0,0.5],[1,0.5]];portConstraint=eastwest;strokeColor=inherit;fontSize=16;" vertex="1" parent="SpVYuSMOWZ6ZJoNV5RPl-41">
          <mxGeometry y="93" width="300" height="30" as="geometry" />
        </mxCell>
        <mxCell id="SpVYuSMOWZ6ZJoNV5RPl-46" value="" style="shape=partialRectangle;html=1;whiteSpace=wrap;connectable=0;fillColor=none;top=0;left=0;bottom=0;right=0;overflow=hidden;strokeColor=inherit;fontSize=16;" vertex="1" parent="SpVYuSMOWZ6ZJoNV5RPl-45">
          <mxGeometry width="40" height="30" as="geometry">
            <mxRectangle width="40" height="30" as="alternateBounds" />
          </mxGeometry>
        </mxCell>
        <mxCell id="SpVYuSMOWZ6ZJoNV5RPl-47" value="&lt;span style=&quot;text-align: center; text-wrap: nowrap;&quot;&gt;Availability INT&lt;/span&gt;" style="shape=partialRectangle;html=1;whiteSpace=wrap;connectable=0;fillColor=none;top=0;left=0;bottom=0;right=0;align=left;spacingLeft=6;overflow=hidden;strokeColor=inherit;fontSize=16;" vertex="1" parent="SpVYuSMOWZ6ZJoNV5RPl-45">
          <mxGeometry x="40" width="260" height="30" as="geometry">
            <mxRectangle width="260" height="30" as="alternateBounds" />
          </mxGeometry>
        </mxCell>
        <mxCell id="SpVYuSMOWZ6ZJoNV5RPl-48" value="" style="shape=tableRow;horizontal=0;startSize=0;swimlaneHead=0;swimlaneBody=0;top=0;left=0;bottom=0;right=0;collapsible=0;dropTarget=0;fillColor=none;points=[[0,0.5],[1,0.5]];portConstraint=eastwest;strokeColor=inherit;fontSize=16;" vertex="1" parent="SpVYuSMOWZ6ZJoNV5RPl-41">
          <mxGeometry y="123" width="300" height="30" as="geometry" />
        </mxCell>
        <mxCell id="SpVYuSMOWZ6ZJoNV5RPl-49" value="" style="shape=partialRectangle;html=1;whiteSpace=wrap;connectable=0;fillColor=none;top=0;left=0;bottom=0;right=0;overflow=hidden;strokeColor=inherit;fontSize=16;" vertex="1" parent="SpVYuSMOWZ6ZJoNV5RPl-48">
          <mxGeometry width="40" height="30" as="geometry">
            <mxRectangle width="40" height="30" as="alternateBounds" />
          </mxGeometry>
        </mxCell>
        <mxCell id="SpVYuSMOWZ6ZJoNV5RPl-50" value="Number_of_Nights INT" style="shape=partialRectangle;html=1;whiteSpace=wrap;connectable=0;fillColor=none;top=0;left=0;bottom=0;right=0;align=left;spacingLeft=6;overflow=hidden;strokeColor=inherit;fontSize=16;" vertex="1" parent="SpVYuSMOWZ6ZJoNV5RPl-48">
          <mxGeometry x="40" width="260" height="30" as="geometry">
            <mxRectangle width="260" height="30" as="alternateBounds" />
          </mxGeometry>
        </mxCell>
        <mxCell id="SpVYuSMOWZ6ZJoNV5RPl-51" value="" style="shape=tableRow;horizontal=0;startSize=0;swimlaneHead=0;swimlaneBody=0;top=0;left=0;bottom=0;right=0;collapsible=0;dropTarget=0;fillColor=none;points=[[0,0.5],[1,0.5]];portConstraint=eastwest;strokeColor=inherit;fontSize=16;" vertex="1" parent="SpVYuSMOWZ6ZJoNV5RPl-41">
          <mxGeometry y="153" width="300" height="30" as="geometry" />
        </mxCell>
        <mxCell id="SpVYuSMOWZ6ZJoNV5RPl-52" value="" style="shape=partialRectangle;html=1;whiteSpace=wrap;connectable=0;fillColor=none;top=0;left=0;bottom=0;right=0;overflow=hidden;strokeColor=inherit;fontSize=16;" vertex="1" parent="SpVYuSMOWZ6ZJoNV5RPl-51">
          <mxGeometry width="40" height="30" as="geometry">
            <mxRectangle width="40" height="30" as="alternateBounds" />
          </mxGeometry>
        </mxCell>
        <mxCell id="SpVYuSMOWZ6ZJoNV5RPl-53" value="Minium_Nights INT" style="shape=partialRectangle;html=1;whiteSpace=wrap;connectable=0;fillColor=none;top=0;left=0;bottom=0;right=0;align=left;spacingLeft=6;overflow=hidden;strokeColor=inherit;fontSize=16;" vertex="1" parent="SpVYuSMOWZ6ZJoNV5RPl-51">
          <mxGeometry x="40" width="260" height="30" as="geometry">
            <mxRectangle width="260" height="30" as="alternateBounds" />
          </mxGeometry>
        </mxCell>
        <mxCell id="SpVYuSMOWZ6ZJoNV5RPl-54" value="" style="line;strokeWidth=2;html=1;" vertex="1" parent="1">
          <mxGeometry x="360" y="650" width="220" height="10" as="geometry" />
        </mxCell>
        <mxCell id="SpVYuSMOWZ6ZJoNV5RPl-55" value="" style="line;strokeWidth=2;html=1;" vertex="1" parent="1">
          <mxGeometry x="750" y="770" width="300" height="10" as="geometry" />
        </mxCell>
        <mxCell id="SpVYuSMOWZ6ZJoNV5RPl-56" value="" style="line;strokeWidth=2;html=1;" vertex="1" parent="1">
          <mxGeometry x="60" y="450" width="180" height="10" as="geometry" />
        </mxCell>
        <mxCell id="SpVYuSMOWZ6ZJoNV5RPl-57" style="edgeStyle=orthogonalEdgeStyle;rounded=0;orthogonalLoop=1;jettySize=auto;html=1;exitX=1;exitY=0.5;exitDx=0;exitDy=0;entryX=0;entryY=0.5;entryDx=0;entryDy=0;targetPerimeterSpacing=0;endArrow=ERoneToMany;endFill=0;startArrow=ERone;startFill=0;" edge="1" parent="1" source="s0JxeHWiGgHbualvhHLS-2" target="s0JxeHWiGgHbualvhHLS-44">
          <mxGeometry relative="1" as="geometry" />
        </mxCell>
        <mxCell id="SpVYuSMOWZ6ZJoNV5RPl-58" style="edgeStyle=orthogonalEdgeStyle;rounded=0;orthogonalLoop=1;jettySize=auto;html=1;exitX=0;exitY=0.5;exitDx=0;exitDy=0;entryX=1;entryY=0.5;entryDx=0;entryDy=0;startArrow=ERone;startFill=0;endArrow=ERoneToMany;endFill=0;" edge="1" parent="1" source="s0JxeHWiGgHbualvhHLS-12" target="s0JxeHWiGgHbualvhHLS-75">
          <mxGeometry relative="1" as="geometry" />
        </mxCell>
        <mxCell id="SpVYuSMOWZ6ZJoNV5RPl-59" style="edgeStyle=orthogonalEdgeStyle;rounded=0;orthogonalLoop=1;jettySize=auto;html=1;exitX=1;exitY=0.5;exitDx=0;exitDy=0;entryX=0;entryY=0.5;entryDx=0;entryDy=0;startArrow=ERone;startFill=0;endArrow=ERmany;endFill=0;" edge="1" parent="1" source="SpVYuSMOWZ6ZJoNV5RPl-32" target="s0JxeHWiGgHbualvhHLS-28">
          <mxGeometry relative="1" as="geometry">
            <Array as="points">
              <mxPoint x="280" y="430" />
              <mxPoint x="280" y="155" />
            </Array>
          </mxGeometry>
        </mxCell>
        <mxCell id="SpVYuSMOWZ6ZJoNV5RPl-65" style="edgeStyle=orthogonalEdgeStyle;rounded=0;orthogonalLoop=1;jettySize=auto;html=1;exitX=1;exitY=0.5;exitDx=0;exitDy=0;entryX=1;entryY=0.5;entryDx=0;entryDy=0;startArrow=ERone;startFill=0;endArrow=ERone;endFill=0;" edge="1" parent="1" source="SpVYuSMOWZ6ZJoNV5RPl-2" target="SpVYuSMOWZ6ZJoNV5RPl-62">
          <mxGeometry relative="1" as="geometry" />
        </mxCell>
        <mxCell id="SpVYuSMOWZ6ZJoNV5RPl-66" style="edgeStyle=orthogonalEdgeStyle;rounded=0;orthogonalLoop=1;jettySize=auto;html=1;exitX=0;exitY=0.5;exitDx=0;exitDy=0;entryX=1;entryY=0.5;entryDx=0;entryDy=0;startArrow=ERone;startFill=0;endArrow=ERoneToMany;endFill=0;" edge="1" parent="1" source="SpVYuSMOWZ6ZJoNV5RPl-42" target="s0JxeHWiGgHbualvhHLS-59">
          <mxGeometry relative="1" as="geometry" />
        </mxCell>
        <mxCell id="SpVYuSMOWZ6ZJoNV5RPl-68" style="edgeStyle=orthogonalEdgeStyle;rounded=0;orthogonalLoop=1;jettySize=auto;html=1;exitX=0;exitY=0.5;exitDx=0;exitDy=0;entryX=0;entryY=0.5;entryDx=0;entryDy=0;startArrow=ERone;startFill=0;endArrow=ERone;endFill=0;" edge="1" parent="1" source="s0JxeHWiGgHbualvhHLS-22" target="SpVYuSMOWZ6ZJoNV5RPl-19">
          <mxGeometry relative="1" as="geometry" />
        </mxCell>
      </root>
    </mxGraphModel>
  </diagram>
</mxfile>
